<svg xmlns="http://www.w3.org/2000/svg" width="20.897" height="20.97" viewBox="0 0 20.897 20.97">
  <g id="Group_3070" data-name="Group 3070" transform="translate(-1138.415 -222.5)">
    <path id="Path_452" data-name="Path 452" d="M38.177,43.141a2.116,2.116,0,0,1-2.534,1.138V59.887h1.229V53.579h9.4a.41.41,0,0,0,.41-.41c0-6.265,0-8.751,0-9.619a.41.41,0,0,0-.41-.409H38.177Z" transform="translate(1104.195 181.126)" fill="#119abe"/>
    <path id="Path_453" data-name="Path 453" d="M4.357,482H1.51a.614.614,0,1,0,0,1.229H4.357a.614.614,0,1,0,0-1.229Z" transform="translate(1137.519 -239.757)" fill="#119abe"/>
    <path id="Path_454" data-name="Path 454" d="M342.161,108.019l-3.308-4.226,3.308-4.226a.615.615,0,0,0-.484-.993h-6.185a.41.41,0,0,0-.41.41V108.6a.41.41,0,0,0,.41.41h6.185A.615.615,0,0,0,342.161,108.019Z" transform="translate(817.02 127.963)" fill="#119abe"/>
    <path id="Path_455" data-name="Path 455" d="M29.947,1.767a.884.884,0,1,0-.874-.884A.881.881,0,0,0,29.947,1.767Z" transform="translate(1110.496 222.5)" fill="#119abe"/>
  </g>
</svg>
