<svg xmlns="http://www.w3.org/2000/svg" width="23.293" height="21.267" viewBox="0 0 23.293 21.267">
  <path id="Icon_material-add-a-photo" data-name="Icon material-add-a-photo" d="M3.038,4.538V1.5H5.064V4.538H8.1V6.564H5.064V9.6H3.038V6.564H0V4.538Zm3.038,6.076V7.576H9.115V4.538H16.2l1.853,2.025h3.21a2.031,2.031,0,0,1,2.025,2.025V20.742a2.031,2.031,0,0,1-2.025,2.025H5.064a2.031,2.031,0,0,1-2.025-2.025V10.615Zm7.089,9.115A5.064,5.064,0,1,0,8.1,14.665,5.065,5.065,0,0,0,13.165,19.729ZM9.925,14.665a3.241,3.241,0,1,0,3.241-3.241A3.237,3.237,0,0,0,9.925,14.665Z" transform="translate(0 -1.5)" fill="#89b850"/>
</svg>
