<svg xmlns="http://www.w3.org/2000/svg" width="18.582" height="18.582" viewBox="0 0 18.582 18.582">
  <path id="Icon_metro-cross" data-name="Icon metro-cross" d="M20.984,16.857h0l-5.637-5.637,5.637-5.637h0a.582.582,0,0,0,0-.821L18.32,2.1a.582.582,0,0,0-.821,0h0L11.862,7.735,6.225,2.1h0a.582.582,0,0,0-.821,0L2.74,4.761a.582.582,0,0,0,0,.821h0l5.637,5.637L2.74,16.857h0a.582.582,0,0,0,0,.821L5.4,20.341a.582.582,0,0,0,.821,0h0L11.862,14.7,17.5,20.341h0a.582.582,0,0,0,.821,0l2.663-2.663a.582.582,0,0,0,0-.821Z" transform="translate(-2.571 -1.928)" fill="#c42929"/>
</svg>
