<svg xmlns="http://www.w3.org/2000/svg" width="13.657" height="16.447" viewBox="0 0 13.657 16.447">
  <path id="Path_482" data-name="Path 482" d="M49.985-511.884a1.4,1.4,0,0,0-.961.9,2.791,2.791,0,0,0-.074.733l-.019.575-.273.106a4.776,4.776,0,0,0-1.613,1.006,4.744,4.744,0,0,0-1.26,1.97,5.942,5.942,0,0,0-.244,2.455,8.046,8.046,0,0,1-.193,2.442,4.444,4.444,0,0,1-.35.877,4.771,4.771,0,0,1-.954,1.276c-.5.495-.543.578-.543.98a.787.787,0,0,0,.074.443,1.1,1.1,0,0,0,.482.479l.183.09,1.854.01,1.857.01.019.087a2.38,2.38,0,0,0,.582,1.16,2.316,2.316,0,0,0,1.629.8,2.3,2.3,0,0,0,1.851-.726,2.258,2.258,0,0,0,.656-1.231l.019-.087,1.857-.01,1.854-.01.183-.09a1.1,1.1,0,0,0,.482-.479.787.787,0,0,0,.074-.443c0-.4-.048-.488-.543-.98a4.8,4.8,0,0,1-1.308-2.159,8.106,8.106,0,0,1-.19-2.436,6.009,6.009,0,0,0-.241-2.445,4.743,4.743,0,0,0-1.263-1.979A4.776,4.776,0,0,0,52-509.57l-.273-.106-.019-.575a2.517,2.517,0,0,0-.084-.755A1.374,1.374,0,0,0,49.985-511.884Zm.675.729a.847.847,0,0,1,.231.212c.1.138.1.145.106.611l.01.472H49.654v-.427a1.669,1.669,0,0,1,.048-.546A.674.674,0,0,1,50.66-511.154Zm.415,2.037a4.152,4.152,0,0,1,3.156,2.744,6.153,6.153,0,0,1,.212,2.362,7.542,7.542,0,0,0,.215,2.523,5.559,5.559,0,0,0,1.536,2.494c.305.273.36.4.254.594s.286.19-6.118.19-6.016.013-6.118-.19-.051-.321.254-.594A5.559,5.559,0,0,0,46-501.488a7.72,7.72,0,0,0,.215-2.523,6.153,6.153,0,0,1,.212-2.362,4.215,4.215,0,0,1,1.9-2.294,4.49,4.49,0,0,1,1.555-.5A4.844,4.844,0,0,1,51.074-509.117Zm.913,11.668a2.085,2.085,0,0,1-.392.713,1.645,1.645,0,0,1-1.25.559,1.663,1.663,0,0,1-1.269-.546,2.129,2.129,0,0,1-.4-.726l-.019-.087h3.355Z" transform="translate(-43.5 511.93)"/>
</svg>
